<svg width="15" height="16" viewBox="0 0 15 16" fill="none" xmlns="http://www.w3.org/2000/svg">
<path d="M3.72293 8H5.27848V9.6H3.72293V8Z" fill="#0073AA"/>
<path d="M3.72293 11.2H5.27848V12.8H3.72293V11.2Z" fill="#0073AA"/>
<path d="M8.38959 8H6.83404V9.6H8.38959V8Z" fill="#0073AA"/>
<path d="M6.83404 11.2H8.38959V12.8H6.83404V11.2Z" fill="#0073AA"/>
<path d="M11.5007 8H9.94515V9.6H11.5007V8Z" fill="#0073AA"/>
<path d="M9.94515 11.2H11.5007V12.8H9.94515V11.2Z" fill="#0073AA"/>
<path fill-rule="evenodd" clip-rule="evenodd" d="M13.0563 16H2.16737C1.30948 16 0.611816 15.2824 0.611816 14.4V3.2C0.611816 2.3176 1.30948 1.6 2.16737 1.6H3.72293V0H5.27848V1.6H9.94515V0H11.5007V1.6H13.0563C13.9142 1.6 14.6118 2.3176 14.6118 3.2V14.4C14.6118 15.2824 13.9142 16 13.0563 16ZM13.0564 4.8L13.0563 3.2H2.16737V4.8H13.0564ZM13.0565 6.4L13.057 14.4H2.16737V6.4H13.0565Z" fill="#0073AA"/>
</svg>
