<svg width="17" height="16" viewBox="0 0 17 16" fill-opacity="0" fill="none" xmlns="http://www.w3.org/2000/svg">
<path d="M1.61182 8.18889C1.44613 8.18889 1.31182 8.05457 1.31182 7.88889V1C1.31182 0.834314 1.44613 0.7 1.61182 0.7H6.72293C6.88861 0.7 7.02293 0.834315 7.02293 1V7.88889C7.02293 8.05457 6.88861 8.18889 6.72293 8.18889H1.61182ZM1.61182 15.3C1.44613 15.3 1.31182 15.1657 1.31182 15V11.6667C1.31182 11.501 1.44613 11.3667 1.61182 11.3667H6.72293C6.88861 11.3667 7.02293 11.501 7.02293 11.6667V15C7.02293 15.1657 6.88861 15.3 6.72293 15.3H1.61182ZM10.5007 15.3C10.335 15.3 10.2007 15.1657 10.2007 15V8.11111C10.2007 7.94543 10.335 7.81111 10.5007 7.81111H15.6118C15.7775 7.81111 15.9118 7.94543 15.9118 8.11111V15C15.9118 15.1657 15.7775 15.3 15.6118 15.3H10.5007ZM10.2007 1C10.2007 0.834314 10.335 0.7 10.5007 0.7H15.6118C15.7775 0.7 15.9118 0.834314 15.9118 1V4.33333C15.9118 4.49902 15.7775 4.63333 15.6118 4.63333H10.5007C10.335 4.63333 10.2007 4.49902 10.2007 4.33333V1Z" stroke="#C2CFE0" stroke-width="1.4" fill="none" />
</svg>
