<svg width="10" height="10" viewBox="0 0 10 10" fill="none" xmlns="http://www.w3.org/2000/svg">
<path fill-rule="evenodd" clip-rule="evenodd" d="M4.07967 0.526611C3.80588 0.526611 3.5433 0.635376 3.3497 0.828978C3.1561 1.02258 3.04733 1.28516 3.04733 1.55895V1.90273H2.01613L2.01496 1.90273L2.01379 1.90273L1.32654 1.90273C1.13649 1.90273 0.982422 2.0568 0.982422 2.24685C0.982422 2.4369 1.13649 2.59096 1.32654 2.59096H1.67085V8.78502C1.67085 8.96755 1.74336 9.1426 1.87242 9.27167C2.00149 9.40074 2.17655 9.47325 2.35908 9.47325H7.8649C8.04743 9.47325 8.22249 9.40074 8.35156 9.27167C8.48062 9.1426 8.55313 8.96755 8.55313 8.78502V2.59096H8.89705C9.0871 2.59096 9.24117 2.4369 9.24117 2.24685C9.24117 2.0568 9.0871 1.90273 8.89705 1.90273L8.20902 1.90273H7.1767V1.55895C7.1767 1.28516 7.06794 1.02258 6.87434 0.828978C6.68074 0.635376 6.41816 0.526611 6.14436 0.526611H4.07967ZM6.81725 2.59096C6.82234 2.59118 6.82745 2.5913 6.83259 2.5913C6.83773 2.5913 6.84284 2.59118 6.84793 2.59096L7.8649 2.59096V8.78502H2.35908V2.59096L3.37613 2.59096C3.38121 2.59119 3.38632 2.5913 3.39145 2.5913C3.39658 2.5913 3.40168 2.59119 3.40676 2.59096L6.81725 2.59096ZM6.48848 1.90273V1.55895C6.48848 1.46769 6.45222 1.38016 6.38769 1.31563C6.32315 1.25109 6.23563 1.21484 6.14436 1.21484H4.07967C3.98841 1.21484 3.90088 1.25109 3.83635 1.31563C3.77182 1.38016 3.73556 1.46769 3.73556 1.55895V1.90273H6.48848ZM4.07987 3.96764C4.26992 3.96764 4.42399 4.12171 4.42399 4.31176V7.06467C4.42399 7.25472 4.26992 7.40879 4.07987 7.40879C3.88982 7.40879 3.73576 7.25472 3.73576 7.06467V4.31176C3.73576 4.12171 3.88982 3.96764 4.07987 3.96764ZM6.48853 4.31176C6.48853 4.12171 6.33447 3.96764 6.14442 3.96764C5.95437 3.96764 5.8003 4.12171 5.8003 4.31176V7.06467C5.8003 7.25472 5.95437 7.40879 6.14442 7.40879C6.33447 7.40879 6.48853 7.25472 6.48853 7.06467V4.31176Z" fill="white"/>
</svg>
