<svg width="18" height="18" viewBox="0 0 18 18" stroke-dasharray="none" stroke-opacity="0" fill="none" xmlns="http://www.w3.org/2000/svg">
<path fill-rule="evenodd" clip-rule="evenodd" d="M14.8804 12.4426C13.9269 12.4426 13.1576 13.2093 13.1576 14.1508C13.1576 15.0922 13.9269 15.859 14.8804 15.859C15.8339 15.859 16.6033 15.0922 16.6033 14.1508C16.6033 13.2093 15.8339 12.4426 14.8804 12.4426ZM11.7607 14.1508C11.7607 12.4372 13.1594 11.0516 14.8804 11.0516C16.6014 11.0516 18.0002 12.4372 18.0002 14.1508C18.0002 15.8644 16.6014 17.2499 14.8804 17.2499C13.1594 17.2499 11.7607 15.8644 11.7607 14.1508Z" fill="white"/>
<path fill-rule="evenodd" clip-rule="evenodd" d="M9.88931 1.64121C10.1616 1.3692 10.6039 1.36854 10.877 1.63972L14.1581 4.89689C15.0677 5.79987 15.5791 7.025 15.5791 8.30292L15.5793 11.747C15.5793 12.1311 15.2666 12.4425 14.8809 12.4425C14.4951 12.4425 14.1824 12.1311 14.1824 11.747L14.1823 8.30298C14.1822 7.3953 13.819 6.52438 13.1718 5.88191L9.8908 2.62474C9.61763 2.35356 9.61696 1.91322 9.88931 1.64121Z" fill="white"/>
<path fill-rule="evenodd" clip-rule="evenodd" d="M9.68549 2.13223C9.68549 1.74814 9.99819 1.43677 10.3839 1.43677H13.8429C14.2287 1.43677 14.5414 1.74814 14.5414 2.13223C14.5414 2.51632 14.2287 2.82769 13.8429 2.82769H11.0824V5.56608C11.0824 5.95017 10.7697 6.26154 10.3839 6.26154C9.99819 6.26154 9.68549 5.95017 9.68549 5.56608V2.13223Z" fill="white"/>
<path fill-rule="evenodd" clip-rule="evenodd" d="M3.11968 2.14093C2.16617 2.14093 1.39681 2.90771 1.39681 3.84916C1.39681 4.7906 2.16617 5.55739 3.11968 5.55739C4.07319 5.55739 4.84255 4.7906 4.84255 3.84916C4.84255 2.90771 4.07319 2.14093 3.11968 2.14093ZM-6.10352e-05 3.84916C-6.10352e-05 2.13555 1.39869 0.75 3.11968 0.75C4.84067 0.75 6.23942 2.13555 6.23942 3.84916C6.23942 5.56276 4.84067 6.94831 3.11968 6.94831C1.39869 6.94831 -6.10352e-05 5.56276 -6.10352e-05 3.84916Z" fill="white"/>
<path fill-rule="evenodd" clip-rule="evenodd" d="M3.11925 5.55762C3.50498 5.5576 3.8177 5.86896 3.81771 6.25305L3.81785 9.69711C3.81789 10.6048 4.1811 11.4757 4.82828 12.1182L8.10931 15.3753C8.38248 15.6465 8.38315 16.0869 8.11081 16.3589C7.83847 16.6309 7.39624 16.6315 7.12307 16.3604L3.84204 13.1032C2.93244 12.2002 2.42103 10.9751 2.42098 9.69716L2.42084 6.25311C2.42082 5.86901 2.73351 5.55763 3.11925 5.55762Z" fill="white"/>
<path fill-rule="evenodd" clip-rule="evenodd" d="M7.61637 11.7384C8.0021 11.7384 8.3148 12.0498 8.3148 12.4339V15.8677C8.3148 16.2518 8.0021 16.5632 7.61637 16.5632H4.15736C3.77162 16.5632 3.45892 16.2518 3.45892 15.8677C3.45892 15.4836 3.77162 15.1723 4.15736 15.1723H6.91793V12.4339C6.91793 12.0498 7.23063 11.7384 7.61637 11.7384Z" fill="white"/>
</svg>
