<svg width="17" height="14" viewBox="0 0 17 14" fill="none" fill-opacity="0" xmlns="http://www.w3.org/2000/svg">
<path d="M1.45392 0.7H15.7697C15.8242 0.7 15.8654 0.720441 15.8895 0.742698C15.9126 0.764003 15.9118 0.777371 15.9118 0.777769V0.777778V5.44444C15.9118 5.44452 15.9129 5.45795 15.8895 5.47952C15.8654 5.50178 15.8242 5.52222 15.7697 5.52222H1.45392C1.39946 5.52222 1.35823 5.50178 1.33413 5.47952C1.31106 5.45822 1.31179 5.44485 1.31182 5.44445L1.31182 5.44444V0.777778L1.31182 0.777769C1.31179 0.777371 1.31106 0.764003 1.33413 0.742698C1.35823 0.720441 1.39946 0.7 1.45392 0.7ZM1.45392 8.47778H15.7697C15.8242 8.47778 15.8654 8.49822 15.8895 8.52048C15.9126 8.54178 15.9118 8.55515 15.9118 8.55555V8.55556V13.2222C15.9118 13.2223 15.9129 13.2357 15.8895 13.2573C15.8654 13.2796 15.8242 13.3 15.7697 13.3H1.45392C1.39946 13.3 1.35823 13.2796 1.33413 13.2573C1.31106 13.236 1.31179 13.2226 1.31182 13.2222L1.31182 13.2222V8.55556L1.31182 8.55555C1.31179 8.55515 1.31106 8.54178 1.33413 8.52048C1.35823 8.49822 1.39946 8.47778 1.45392 8.47778Z" stroke="#C2CFE0" stroke-width="1.4"/>
</svg>
