<svg width="221" height="29" viewBox="0 0 221 29" fill="none" xmlns="http://www.w3.org/2000/svg">
<circle r="14" transform="matrix(1 0 0 -1 24.929 14.7941)" fill="white" fill-opacity="0.5"/>
<circle r="14" transform="matrix(1 0 0 -1 14.929 14.7941)" fill="white"/>
<path d="M17.8926 18.3644H12.7559L11.7793 21.2941H8.66406L13.957 7.07532H16.6719L21.9941 21.2941H18.8789L17.8926 18.3644ZM13.5469 15.9913H17.1016L15.3145 10.6691L13.5469 15.9913Z" fill="#0C355B"/>
<path d="M47.8145 14.9562C46.2064 14.4939 45.0345 13.9275 44.2988 13.257C43.5697 12.5799 43.2051 11.7465 43.2051 10.757C43.2051 9.63717 43.651 8.71269 44.543 7.98352C45.4414 7.24784 46.6068 6.88 48.0391 6.88C49.0156 6.88 49.8848 7.06881 50.6465 7.44641C51.4147 7.82402 52.0072 8.34485 52.4238 9.00891C52.847 9.67297 53.0586 10.3989 53.0586 11.1866H51.1738C51.1738 10.3273 50.9004 9.65344 50.3535 9.16516C49.8066 8.67037 49.0352 8.42297 48.0391 8.42297C47.1146 8.42297 46.3919 8.62805 45.8711 9.03821C45.3568 9.44185 45.0996 10.005 45.0996 10.7277C45.0996 11.3071 45.3438 11.7986 45.832 12.2023C46.3268 12.5994 47.1634 12.964 48.3418 13.296C49.5267 13.6281 50.4512 13.9959 51.1152 14.3995C51.7858 14.7967 52.2806 15.2622 52.5996 15.796C52.9251 16.3299 53.0879 16.9581 53.0879 17.6808C53.0879 18.8331 52.6387 19.7576 51.7402 20.4542C50.8418 21.1443 49.6406 21.4894 48.1367 21.4894C47.1602 21.4894 46.2487 21.3038 45.4023 20.9327C44.556 20.5551 43.9017 20.0408 43.4395 19.3898C42.9837 18.7387 42.7559 17.9998 42.7559 17.173H44.6406C44.6406 18.0323 44.9564 18.7127 45.5879 19.214C46.2259 19.7088 47.0755 19.9562 48.1367 19.9562C49.1263 19.9562 49.8848 19.7544 50.4121 19.3507C50.9395 18.9471 51.2031 18.3969 51.2031 17.7003C51.2031 17.0037 50.959 16.4666 50.4707 16.089C49.9824 15.7049 49.097 15.3273 47.8145 14.9562ZM66.4375 14.6437C66.4375 16.0369 66.2031 17.2544 65.7344 18.296C65.2656 19.3312 64.6016 20.1222 63.7422 20.6691C62.8828 21.2159 61.8802 21.4894 60.7344 21.4894C59.6146 21.4894 58.6217 21.2159 57.7559 20.6691C56.89 20.1157 56.2161 19.3312 55.7344 18.3156C55.2591 17.2934 55.015 16.1118 55.002 14.7706V13.7452C55.002 12.3781 55.2396 11.1704 55.7148 10.1222C56.1901 9.07402 56.8607 8.27323 57.7266 7.71985C58.599 7.15995 59.5951 6.88 60.7148 6.88C61.8542 6.88 62.8568 7.1567 63.7227 7.71008C64.5951 8.25696 65.2656 9.05448 65.7344 10.1027C66.2031 11.1443 66.4375 12.3585 66.4375 13.7452V14.6437ZM64.5723 13.7257C64.5723 12.0395 64.2337 10.7472 63.5566 9.84875C62.8796 8.94381 61.9323 8.49133 60.7148 8.49133C59.5299 8.49133 58.5957 8.94381 57.9121 9.84875C57.235 10.7472 56.8867 11.9972 56.8672 13.5988V14.6437C56.8672 16.2778 57.209 17.5636 57.8926 18.5011C58.5827 19.4321 59.5299 19.8976 60.7344 19.8976C61.9453 19.8976 62.8828 19.4581 63.5469 18.5792C64.2109 17.6938 64.5527 16.4275 64.5723 14.7804V13.7257ZM77.0918 15.0148H71.125V21.2941H69.25V7.07532H78.0586V8.61829H71.125V13.4816H77.0918V15.0148ZM90.3242 8.61829H85.7539V21.2941H83.8887V8.61829H79.3281V7.07532H90.3242V8.61829Z" fill="white"/>
<path d="M101.666 12.8409L101.697 14.2159C102.01 13.7055 102.4 13.3227 102.869 13.0675C103.338 12.8123 103.859 12.6847 104.432 12.6847C105.765 12.6847 106.611 13.2316 106.971 14.3253C107.273 13.7993 107.676 13.3956 108.182 13.1144C108.687 12.8279 109.244 12.6847 109.854 12.6847C111.666 12.6847 112.59 13.6743 112.627 15.6534V21.2941H111.689V15.7238C111.684 14.9685 111.52 14.4087 111.197 14.0441C110.88 13.6795 110.359 13.4972 109.635 13.4972C108.963 13.5076 108.395 13.7264 107.932 14.1534C107.468 14.5753 107.21 15.0909 107.158 15.7003V21.2941H106.221V15.6534C106.215 14.9295 106.044 14.3904 105.705 14.0363C105.372 13.6769 104.856 13.4972 104.158 13.4972C103.57 13.4972 103.064 13.6665 102.643 14.005C102.221 14.3383 101.908 14.8357 101.705 15.4972V21.2941H100.768V12.8409H101.666ZM120.338 21.2941C120.244 21.0284 120.184 20.6352 120.158 20.1144C119.83 20.5415 119.411 20.8722 118.9 21.1066C118.395 21.3357 117.859 21.4503 117.291 21.4503C116.479 21.4503 115.82 21.2238 115.314 20.7706C114.814 20.3175 114.564 19.7446 114.564 19.0519C114.564 18.229 114.906 17.5779 115.588 17.0988C116.275 16.6196 117.231 16.38 118.455 16.38H120.15V15.4191C120.15 14.8149 119.963 14.3409 119.588 13.9972C119.218 13.6482 118.676 13.4738 117.963 13.4738C117.312 13.4738 116.773 13.6404 116.346 13.9738C115.919 14.3071 115.705 14.7081 115.705 15.1769L114.768 15.1691C114.768 14.4972 115.08 13.9165 115.705 13.4269C116.33 12.9321 117.098 12.6847 118.01 12.6847C118.952 12.6847 119.695 12.9217 120.236 13.3956C120.783 13.8644 121.064 14.5206 121.08 15.3644V19.3644C121.08 20.1821 121.166 20.7941 121.338 21.2003V21.2941H120.338ZM117.4 20.6222C118.025 20.6222 118.583 20.4712 119.072 20.1691C119.567 19.867 119.926 19.4633 120.15 18.9581V17.0988H118.479C117.546 17.1092 116.817 17.281 116.291 17.6144C115.765 17.9425 115.502 18.3956 115.502 18.9738C115.502 19.4477 115.676 19.8409 116.025 20.1534C116.38 20.4659 116.838 20.6222 117.4 20.6222ZM126.705 20.6613C127.356 20.6613 127.9 20.479 128.338 20.1144C128.781 19.7446 129.02 19.268 129.057 18.6847H129.955C129.929 19.2003 129.768 19.6717 129.471 20.0988C129.174 20.5206 128.778 20.8514 128.283 21.0909C127.794 21.3305 127.268 21.4503 126.705 21.4503C125.596 21.4503 124.715 21.0649 124.064 20.2941C123.419 19.5232 123.096 18.4868 123.096 17.1847V16.9034C123.096 16.0701 123.242 15.3331 123.533 14.6925C123.825 14.0519 124.242 13.5571 124.783 13.2081C125.33 12.8592 125.968 12.6847 126.697 12.6847C127.624 12.6847 128.387 12.9607 128.986 13.5128C129.59 14.0649 129.913 14.7915 129.955 15.6925H129.057C129.015 15.031 128.775 14.4972 128.338 14.0909C127.906 13.6847 127.359 13.4816 126.697 13.4816C125.854 13.4816 125.197 13.7863 124.729 14.3956C124.265 15.005 124.033 15.8592 124.033 16.9581V17.2316C124.033 18.3097 124.265 19.1508 124.729 19.755C125.197 20.3592 125.856 20.6613 126.705 20.6613ZM132.76 14.2706C133.067 13.7654 133.46 13.3748 133.939 13.0988C134.419 12.8227 134.942 12.6847 135.51 12.6847C136.416 12.6847 137.09 12.9399 137.533 13.4503C137.976 13.9607 138.2 14.7264 138.205 15.7472V21.2941H137.275V15.7394C137.27 14.9842 137.109 14.4217 136.791 14.0519C136.479 13.6821 135.976 13.4972 135.283 13.4972C134.705 13.4972 134.192 13.6795 133.744 14.0441C133.301 14.4034 132.973 14.8904 132.76 15.505V21.2941H131.83V9.29407H132.76V14.2706ZM141.658 21.2941H140.721V12.8409H141.658V21.2941ZM140.557 10.3956C140.557 10.2185 140.614 10.0701 140.729 9.95032C140.843 9.82532 140.999 9.76282 141.197 9.76282C141.395 9.76282 141.551 9.82532 141.666 9.95032C141.786 10.0701 141.846 10.2185 141.846 10.3956C141.846 10.5727 141.786 10.7212 141.666 10.8409C141.551 10.9607 141.395 11.0206 141.197 11.0206C140.999 11.0206 140.843 10.9607 140.729 10.8409C140.614 10.7212 140.557 10.5727 140.557 10.3956ZM145.096 12.8409L145.127 14.2863C145.445 13.7654 145.84 13.3696 146.314 13.0988C146.788 12.8227 147.312 12.6847 147.885 12.6847C148.791 12.6847 149.465 12.9399 149.908 13.4503C150.351 13.9607 150.575 14.7264 150.58 15.7472V21.2941H149.65V15.7394C149.645 14.9842 149.484 14.4217 149.166 14.0519C148.854 13.6821 148.351 13.4972 147.658 13.4972C147.08 13.4972 146.567 13.6795 146.119 14.0441C145.676 14.4034 145.348 14.8904 145.135 15.505V21.2941H144.205V12.8409H145.096ZM156.275 21.4503C155.557 21.4503 154.906 21.2732 154.322 20.9191C153.744 20.5649 153.294 20.0727 152.971 19.4425C152.648 18.8071 152.486 18.0962 152.486 17.3097V16.9738C152.486 16.1613 152.643 15.4295 152.955 14.7784C153.273 14.1274 153.713 13.617 154.275 13.2472C154.838 12.8722 155.447 12.6847 156.104 12.6847C157.13 12.6847 157.942 13.0363 158.541 13.7394C159.145 14.4373 159.447 15.393 159.447 16.6066V17.13H153.416V17.3097C153.416 18.268 153.689 19.0675 154.236 19.7081C154.788 20.3435 155.481 20.6613 156.314 20.6613C156.814 20.6613 157.255 20.5701 157.635 20.3878C158.02 20.2055 158.369 19.9139 158.682 19.5128L159.268 19.9581C158.58 20.9529 157.583 21.4503 156.275 21.4503ZM156.104 13.4816C155.4 13.4816 154.807 13.7394 154.322 14.255C153.843 14.7706 153.551 15.4633 153.447 16.3331H158.518V16.2316C158.492 15.4191 158.26 14.7576 157.822 14.2472C157.385 13.7368 156.812 13.4816 156.104 13.4816ZM166.205 21.2941H165.268V9.29407H166.205V21.2941ZM172.025 21.4503C171.307 21.4503 170.656 21.2732 170.072 20.9191C169.494 20.5649 169.044 20.0727 168.721 19.4425C168.398 18.8071 168.236 18.0962 168.236 17.3097V16.9738C168.236 16.1613 168.393 15.4295 168.705 14.7784C169.023 14.1274 169.463 13.617 170.025 13.2472C170.588 12.8722 171.197 12.6847 171.854 12.6847C172.88 12.6847 173.692 13.0363 174.291 13.7394C174.895 14.4373 175.197 15.393 175.197 16.6066V17.13H169.166V17.3097C169.166 18.268 169.439 19.0675 169.986 19.7081C170.538 20.3435 171.231 20.6613 172.064 20.6613C172.564 20.6613 173.005 20.5701 173.385 20.3878C173.77 20.2055 174.119 19.9139 174.432 19.5128L175.018 19.9581C174.33 20.9529 173.333 21.4503 172.025 21.4503ZM171.854 13.4816C171.15 13.4816 170.557 13.7394 170.072 14.255C169.593 14.7706 169.301 15.4633 169.197 16.3331H174.268V16.2316C174.242 15.4191 174.01 14.7576 173.572 14.2472C173.135 13.7368 172.562 13.4816 171.854 13.4816ZM182.354 21.2941C182.26 21.0284 182.2 20.6352 182.174 20.1144C181.846 20.5415 181.426 20.8722 180.916 21.1066C180.411 21.3357 179.874 21.4503 179.307 21.4503C178.494 21.4503 177.835 21.2238 177.33 20.7706C176.83 20.3175 176.58 19.7446 176.58 19.0519C176.58 18.229 176.921 17.5779 177.604 17.0988C178.291 16.6196 179.247 16.38 180.471 16.38H182.166V15.4191C182.166 14.8149 181.979 14.3409 181.604 13.9972C181.234 13.6482 180.692 13.4738 179.979 13.4738C179.327 13.4738 178.788 13.6404 178.361 13.9738C177.934 14.3071 177.721 14.7081 177.721 15.1769L176.783 15.1691C176.783 14.4972 177.096 13.9165 177.721 13.4269C178.346 12.9321 179.114 12.6847 180.025 12.6847C180.968 12.6847 181.71 12.9217 182.252 13.3956C182.799 13.8644 183.08 14.5206 183.096 15.3644V19.3644C183.096 20.1821 183.182 20.7941 183.354 21.2003V21.2941H182.354ZM179.416 20.6222C180.041 20.6222 180.598 20.4712 181.088 20.1691C181.583 19.867 181.942 19.4633 182.166 18.9581V17.0988H180.494C179.562 17.1092 178.833 17.281 178.307 17.6144C177.781 17.9425 177.518 18.3956 177.518 18.9738C177.518 19.4477 177.692 19.8409 178.041 20.1534C178.395 20.4659 178.854 20.6222 179.416 20.6222ZM189.502 13.6378C189.304 13.6014 189.093 13.5831 188.869 13.5831C188.286 13.5831 187.791 13.7472 187.385 14.0753C186.984 14.3982 186.697 14.8696 186.525 15.4894V21.2941H185.596V12.8409H186.51L186.525 14.1847C187.02 13.1847 187.814 12.6847 188.908 12.6847C189.169 12.6847 189.374 12.7185 189.525 12.7863L189.502 13.6378ZM191.877 12.8409L191.908 14.2863C192.226 13.7654 192.622 13.3696 193.096 13.0988C193.57 12.8227 194.093 12.6847 194.666 12.6847C195.572 12.6847 196.247 12.9399 196.689 13.4503C197.132 13.9607 197.356 14.7264 197.361 15.7472V21.2941H196.432V15.7394C196.426 14.9842 196.265 14.4217 195.947 14.0519C195.635 13.6821 195.132 13.4972 194.439 13.4972C193.861 13.4972 193.348 13.6795 192.9 14.0441C192.458 14.4034 192.13 14.8904 191.916 15.505V21.2941H190.986V12.8409H191.877ZM200.83 21.2941H199.893V12.8409H200.83V21.2941ZM199.729 10.3956C199.729 10.2185 199.786 10.0701 199.9 9.95032C200.015 9.82532 200.171 9.76282 200.369 9.76282C200.567 9.76282 200.723 9.82532 200.838 9.95032C200.958 10.0701 201.018 10.2185 201.018 10.3956C201.018 10.5727 200.958 10.7212 200.838 10.8409C200.723 10.9607 200.567 11.0206 200.369 11.0206C200.171 11.0206 200.015 10.9607 199.9 10.8409C199.786 10.7212 199.729 10.5727 199.729 10.3956ZM204.268 12.8409L204.299 14.2863C204.617 13.7654 205.012 13.3696 205.486 13.0988C205.96 12.8227 206.484 12.6847 207.057 12.6847C207.963 12.6847 208.637 12.9399 209.08 13.4503C209.523 13.9607 209.747 14.7264 209.752 15.7472V21.2941H208.822V15.7394C208.817 14.9842 208.656 14.4217 208.338 14.0519C208.025 13.6821 207.523 13.4972 206.83 13.4972C206.252 13.4972 205.739 13.6795 205.291 14.0441C204.848 14.4034 204.52 14.8904 204.307 15.505V21.2941H203.377V12.8409H204.268ZM211.799 16.9894C211.799 15.6665 212.09 14.6196 212.674 13.8488C213.262 13.0727 214.059 12.6847 215.064 12.6847C216.215 12.6847 217.09 13.143 217.689 14.0597L217.736 12.8409H218.611V21.1222C218.611 22.2107 218.307 23.0727 217.697 23.7081C217.088 24.3435 216.262 24.6613 215.221 24.6613C214.632 24.6613 214.07 24.5284 213.533 24.2628C213.002 24.0024 212.583 23.6534 212.275 23.2159L212.799 22.6534C213.46 23.4659 214.247 23.8722 215.158 23.8722C215.939 23.8722 216.549 23.6404 216.986 23.1769C217.424 22.7185 217.65 22.0805 217.666 21.2628V20.2003C217.067 21.0337 216.195 21.4503 215.049 21.4503C214.07 21.4503 213.283 21.0597 212.689 20.2784C212.096 19.4972 211.799 18.4425 211.799 17.1144V16.9894ZM212.744 17.1534C212.744 18.2316 212.96 19.0831 213.393 19.7081C213.825 20.3279 214.434 20.6378 215.221 20.6378C216.372 20.6378 217.187 20.1222 217.666 19.0909V15.1613C217.447 14.6196 217.132 14.2081 216.721 13.9269C216.309 13.6404 215.814 13.4972 215.236 13.4972C214.45 13.4972 213.838 13.8071 213.4 14.4269C212.963 15.0415 212.744 15.9503 212.744 17.1534Z" fill="white"/>
</svg>
